<svg width="134.08" height="37.433" viewBox="0 0 134.08 37.433" xmlns="http://www.w3.org/2000/svg"><g id="svgGroup" stroke-linecap="round" fill-rule="evenodd" font-size="9pt" stroke="#fff" stroke-width="0.25mm" fill="#ffffff" style="stroke:#fff;stroke-width:0.25mm;fill:#ffffff"><path d="M 104.567 32.457 A 11.687 11.687 0 0 0 107.987 31.765 A 152.573 152.573 0 0 0 108.326 31.655 C 111.076 30.761 119.177 28.093 112.862 31.465 A 112.521 112.521 0 0 0 112.585 31.615 C 106.849 34.735 105.884 35.899 102.299 35.108 A 20.129 20.129 0 0 1 101.237 34.84 C 96.662 33.565 95.312 28.39 93.212 28.015 C 91.112 27.565 88.187 29.89 85.862 31.69 A 42.033 42.033 0 0 0 85.609 31.879 C 83.508 33.463 79.879 36.454 78.093 37.162 A 1.814 1.814 0 0 1 77.462 37.315 C 76.637 37.315 74.312 35.215 74.612 34.165 C 74.676 33.849 74.846 32.464 76.024 30.282 A 20.018 20.018 0 0 1 76.787 28.99 A 617.871 617.871 0 0 1 76.936 28.756 C 86.997 12.953 91.472 7.525 95.948 4.186 A 31.913 31.913 0 0 1 98.312 2.59 A 24.648 24.648 0 0 1 99.175 2.078 C 104.379 -0.871 108.962 -0.859 108.962 3.265 C 109.031 7.248 102.309 12.929 98.18 16.104 A 110.194 110.194 0 0 1 97.112 16.915 A 25.05 25.05 0 0 1 96.282 17.521 C 92.401 20.242 84.991 24.168 83.375 24.899 A 2.3 2.3 0 0 1 83.087 25.015 A 6.683 6.683 0 0 1 83.047 25.097 C 82.922 25.349 82.511 26.156 81.87 27.179 A 26.063 26.063 0 0 1 81.062 28.39 C 79.995 29.96 78.98 31.95 79.162 32.777 A 0.451 0.451 0 0 0 79.412 33.115 A 0.752 0.752 0 0 0 79.415 33.116 C 80.315 33.487 81.964 32.064 83.312 30.94 C 84.662 29.815 92.387 24.415 94.937 24.715 A 3.37 3.37 0 0 1 96.808 25.572 C 98.02 26.629 98.891 28.505 100.562 30.49 C 101.855 31.985 103.214 32.457 104.567 32.457 Z M 68.702 20.711 A 2.955 2.955 0 0 0 68.537 20.59 C 67.112 19.615 61.337 21.34 55.412 26.965 C 51.569 30.611 51.384 33.61 52.517 35.451 A 4.265 4.265 0 0 0 55.037 37.315 C 57.779 37.982 66.672 35.647 69.778 34.578 A 22.118 22.118 0 0 0 69.887 34.54 C 72.887 33.49 77.087 31.015 79.187 29.815 C 81.207 28.661 78.025 29.518 74.844 30.919 A 35.502 35.502 0 0 0 74.462 31.09 A 19.545 19.545 0 0 1 73.57 31.477 C 69.993 32.933 63.49 34.612 59.262 35.029 A 24.411 24.411 0 0 1 58.862 35.065 A 7.269 7.269 0 0 1 58.571 35.078 C 54.298 35.187 54.54 31.191 55.787 28.99 C 56.987 26.74 62.312 23.89 63.887 23.44 C 65.462 22.915 68.837 23.44 69.437 23.44 C 70.014 23.44 69.967 21.712 68.702 20.711 Z M 53.462 30.19 A 0.597 0.597 0 0 0 53.393 30.219 C 52.284 30.756 46.045 36.428 37.745 35.563 A 16.624 16.624 0 0 1 37.337 35.515 C 33.47 35.023 32.569 33.344 31.854 31.962 A 45.532 45.532 0 0 0 31.712 31.69 C 31.712 31.69 39.003 28.482 40.861 26.451 A 3.246 3.246 0 0 0 40.937 26.365 C 42.662 24.265 43.262 22.765 42.212 21.115 C 41.162 19.465 36.437 19.015 30.662 24.49 C 24.852 29.933 28.274 37.324 36.19 37.324 A 12.991 12.991 0 0 0 36.662 37.315 C 45.887 37.015 49.412 34.39 53.537 31.165 A 0.813 0.813 0 0 0 53.542 31.16 C 53.619 31.076 54.53 30.059 53.483 30.187 A 1.912 1.912 0 0 0 53.462 30.19 Z M 14.162 35.14 A 0.215 0.215 0 0 0 14.288 35.23 C 15.03 35.499 18.695 34.95 22.487 33.64 A 65.72 65.72 0 0 0 22.678 33.571 C 26.682 32.128 30.686 30.258 30.405 31.21 A 0.648 0.648 0 0 1 30.362 31.315 C 29.687 32.515 23.237 35.29 19.412 36.34 A 24.488 24.488 0 0 1 18.668 36.517 C 15.414 37.239 10.327 37.746 6.542 37.015 A 11.003 11.003 0 0 1 4.262 36.34 C 0.362 34.615 -0.463 30.64 0.212 30.265 A 1207.054 1207.054 0 0 0 2.372 28.706 C 6.535 25.693 8.496 24.218 9.236 23.534 A 1.724 1.724 0 0 0 9.587 23.14 A 1.722 1.722 0 0 0 9.63 22.992 C 9.723 22.599 9.671 22.207 9.737 21.34 A 3.497 3.497 0 0 1 10.149 19.995 C 10.559 19.259 11.233 18.756 12.058 18.764 A 2.085 2.085 0 0 1 12.362 18.79 A 0.793 0.793 0 0 1 12.779 19.005 C 13.598 19.823 12.628 22.537 12.362 23.665 A 1.018 1.018 0 0 0 12.354 23.723 C 12.197 25.064 14.166 29.174 14.387 31.465 C 14.643 33.446 14.082 34.393 14.096 34.908 A 0.426 0.426 0 0 0 14.162 35.14 Z M 118.712 21.19 A 0.179 0.179 0 0 0 118.645 21.172 C 118.504 21.161 118.282 21.284 118.013 21.572 A 3.388 3.388 0 0 0 117.887 21.715 A 38.643 38.643 0 0 1 117.874 21.733 C 117.61 22.102 117.31 22.509 116.972 23.005 A 25.489 25.489 0 0 0 116.537 23.665 A 31.589 31.589 0 0 0 115.652 25.142 A 30.023 30.023 0 0 0 114.962 26.44 A 34.062 34.062 0 0 0 113.947 28.676 A 37.488 37.488 0 0 0 113.612 29.515 A 16.89 16.89 0 0 0 113.25 30.511 C 113.022 31.202 112.867 31.821 112.712 32.44 A 8.906 8.906 0 0 0 112.632 33.047 C 112.575 33.636 112.594 34.139 112.69 34.53 A 2.289 2.289 0 0 0 112.712 34.615 A 2.217 2.217 0 0 0 113.449 35.668 C 113.683 35.866 113.961 36.046 114.27 36.214 A 8.118 8.118 0 0 0 114.512 36.34 C 115.487 36.79 116.612 37.24 117.812 37.24 A 36.903 36.903 0 0 0 118.201 37.247 C 120.823 37.279 121.978 36.983 124.103 36.139 A 97.174 97.174 0 0 0 125.087 35.74 A 40.24 40.24 0 0 0 126.468 35.123 C 127.223 34.772 127.946 34.42 128.664 34.109 A 23.151 23.151 0 0 1 129.062 33.94 A 133.737 133.737 0 0 1 130.736 33.121 C 131.159 32.917 131.559 32.724 131.929 32.543 A 56.743 56.743 0 0 0 132.287 32.365 C 133.162 31.927 133.683 31.561 133.849 31.403 A 0.738 0.738 0 0 0 133.862 31.39 C 133.933 31.319 134.272 30.847 133.93 30.605 A 0.517 0.517 0 0 0 133.862 30.565 C 133.575 30.493 132.6 30.628 131.596 31.298 A 5.103 5.103 0 0 0 131.462 31.39 C 130.712 31.915 129.437 32.515 128.312 33.04 C 127.284 33.554 126.112 34.14 125.008 34.446 A 7.666 7.666 0 0 1 124.937 34.465 A 14.246 14.246 0 0 1 123.59 34.859 C 122.796 35.043 121.814 35.169 120.388 35.147 A 22.697 22.697 0 0 1 120.062 35.14 A 4.408 4.408 0 0 1 119.196 35.058 C 118.522 34.923 117.998 34.638 117.512 34.315 A 2.787 2.787 0 0 1 116.27 32.597 A 3.055 3.055 0 0 1 116.237 32.44 A 2.769 2.769 0 0 1 116.194 32.003 C 116.179 31.3 116.407 30.452 116.949 29.424 A 10.922 10.922 0 0 1 117.062 29.215 C 117.505 28.378 117.916 27.671 118.316 27.071 A 12.202 12.202 0 0 1 118.937 26.215 C 119.276 25.731 119.553 25.309 119.767 24.93 A 6.106 6.106 0 0 0 120.062 24.34 A 2.226 2.226 0 0 0 120.212 23.834 C 120.272 23.484 120.239 23.145 120.137 22.84 A 1.583 1.583 0 0 0 119.925 22.441 C 119.745 22.183 119.475 21.9 119.137 21.58 A 23.698 23.698 0 0 0 118.712 21.19 Z M 95.312 8.89 C 101.912 2.515 105.287 2.59 105.587 2.965 C 105.962 3.34 107.987 3.64 101.987 10.015 C 96.73 15.738 88.933 19.277 86.929 20.106 A 9.937 9.937 0 0 1 86.462 20.29 A 8.818 8.818 0 0 1 86.635 19.941 C 87.263 18.723 89.677 14.451 95.086 9.112 A 64.665 64.665 0 0 1 95.312 8.89 Z M 11.174 32.959 A 3.728 3.728 0 0 0 11.237 32.665 A 1.541 1.541 0 0 0 11.241 32.644 C 11.449 31.106 10.035 24.866 9.587 25.015 A 1.941 1.941 0 0 0 9.454 25.097 C 8.511 25.709 3.257 29.39 2.837 29.74 A 0.403 0.403 0 0 0 2.716 29.914 C 2.396 30.668 2.641 33.349 5.061 35.05 A 6.841 6.841 0 0 0 6.137 35.665 A 6.239 6.239 0 0 0 6.271 35.727 C 9.598 37.228 10.866 34.179 11.174 32.959 Z M 31.337 29.14 C 31.937 25.84 38.087 22.09 39.287 22.465 A 1.175 1.175 0 0 1 39.685 22.661 C 40.372 23.199 39.924 24.463 38.382 26.008 A 13.456 13.456 0 0 1 38.012 26.365 C 35.945 28.358 31.334 29.48 31.334 29.156 A 0.044 0.044 0 0 1 31.337 29.14 Z M 124.187 11.44 A 0.11 0.11 0 0 0 124.227 11.463 C 124.346 11.508 124.655 11.483 125.072 11.264 A 2.836 2.836 0 0 0 125.162 11.215 A 4.148 4.148 0 0 0 125.677 10.999 C 125.858 10.909 126.05 10.804 126.251 10.686 A 20.186 20.186 0 0 0 126.737 10.39 A 18.382 18.382 0 0 0 127.919 9.451 A 100.302 100.302 0 0 0 128.312 9.115 A 7.522 7.522 0 0 0 128.761 8.698 C 129.01 8.446 129.21 8.209 129.359 8.018 A 7.165 7.165 0 0 0 129.437 7.915 A 0.633 0.633 0 0 0 129.613 7.513 C 129.623 7.407 129.613 7.293 129.587 7.176 A 1.572 1.572 0 0 0 129.512 6.94 A 1.399 1.399 0 0 0 129.171 6.277 C 129.083 6.178 128.98 6.081 128.861 5.984 A 3.61 3.61 0 0 0 128.837 5.965 A 3.186 3.186 0 0 0 128.496 5.598 A 3.836 3.836 0 0 0 127.862 5.14 A 4.887 4.887 0 0 0 127.569 5.005 C 127.278 4.882 127.051 4.825 126.826 4.768 A 165.331 165.331 0 0 0 126.812 4.765 A 0.658 0.658 0 0 0 126.656 4.786 C 126.46 4.834 126.238 4.964 126.062 5.14 A 4.418 4.418 0 0 0 125.214 6.009 A 4.9 4.9 0 0 0 125.087 6.19 C 124.787 6.64 124.562 7.09 124.262 7.615 A 5.477 5.477 0 0 0 124.063 7.997 C 123.887 8.37 123.775 8.721 123.662 9.115 A 3.341 3.341 0 0 0 123.575 9.504 C 123.53 9.79 123.529 10.05 123.558 10.285 A 2.508 2.508 0 0 0 123.587 10.465 A 1.087 1.087 0 0 0 123.657 10.862 C 123.736 11.064 123.877 11.227 124.069 11.363 A 1.823 1.823 0 0 0 124.187 11.44 Z" vector-effect="non-scaling-stroke"/></g></svg>