<svg width="486.95" height="32" viewBox="0 0 486.95 32" xmlns="http://www.w3.org/2000/svg"><g id="svgGroup" stroke-linecap="round" fill-rule="evenodd" font-size="9pt" stroke="#ffffff" stroke-width="0.25mm" fill="#ffffff" style="stroke:#ffffff;stroke-width:0.25mm;fill:#ffffff"><path d="M 110.8 29.25 L 110 29.25 Q 109.85 30.4 109 31.15 Q 108.15 31.9 107 31.9 Q 105.85 31.9 105 31.15 Q 104.15 30.4 104 29.3 L 103.2 29.3 L 103.2 28 L 102 28 L 100 26 L 98 26 L 98 24 L 100 24 L 100 22 L 102 22 L 102 20 A 5.021 5.021 0 0 1 100.581 18.405 Q 100 17.348 100 16 A 5.021 5.021 0 0 1 100.425 13.908 Q 100.891 12.877 101.868 12.102 A 6.127 6.127 0 0 1 102 12 L 102 10 L 106 10 L 106 4 L 104 2 L 106 0 L 110 0 L 112 2 L 110 4 L 110 10 L 118 10 L 118 6 A 2.069 2.069 0 0 1 118.144 5.219 A 1.923 1.923 0 0 1 118.575 4.575 A 1.931 1.931 0 0 1 119.974 4 A 2.494 2.494 0 0 1 120 4 A 2.069 2.069 0 0 1 120.781 4.144 A 1.923 1.923 0 0 1 121.425 4.575 A 1.931 1.931 0 0 1 122 5.974 A 2.494 2.494 0 0 1 122 6 L 122 10 L 132 10 L 132 6 L 130 6 L 132 4 L 150 4 L 152 6 L 150 6 L 150 10 L 152 10 L 152 22 L 152 24 L 154.95 24 L 154.95 26 L 152 26 L 150 28 L 148.95 28 A 3.846 3.846 0 0 1 147.811 30.788 A 4.701 4.701 0 0 1 147.775 30.825 A 3.848 3.848 0 0 1 145.001 32 A 4.604 4.604 0 0 1 144.95 32 A 3.846 3.846 0 0 1 142.162 30.861 A 4.701 4.701 0 0 1 142.125 30.825 A 3.848 3.848 0 0 1 140.95 28.051 A 4.604 4.604 0 0 1 140.95 28 L 140 28 A 3.846 3.846 0 0 1 138.861 30.788 A 4.701 4.701 0 0 1 138.825 30.825 A 3.848 3.848 0 0 1 136.051 32 A 4.604 4.604 0 0 1 136 32 A 3.846 3.846 0 0 1 133.212 30.861 A 4.701 4.701 0 0 1 133.175 30.825 A 3.848 3.848 0 0 1 132 28.051 A 4.604 4.604 0 0 1 132 28 L 131 28 A 3.846 3.846 0 0 1 129.861 30.788 A 4.701 4.701 0 0 1 129.825 30.825 A 3.848 3.848 0 0 1 127.051 32 A 4.604 4.604 0 0 1 127 32 A 3.846 3.846 0 0 1 124.212 30.861 A 4.701 4.701 0 0 1 124.175 30.825 A 3.848 3.848 0 0 1 123 28.051 A 4.604 4.604 0 0 1 123 28 L 117.5 28 L 117.5 29.2 L 116.8 29.2 Q 116.7 30.35 115.85 31.125 Q 115 31.9 113.8 31.9 Q 112.65 31.9 111.8 31.15 Q 110.95 30.4 110.8 29.25 Z M 98.95 24 L 98.95 26 L 96 26 L 94 28 L 92 28 A 3.846 3.846 0 0 1 90.861 30.788 A 4.701 4.701 0 0 1 90.825 30.825 A 3.848 3.848 0 0 1 88.051 32 A 4.604 4.604 0 0 1 88 32 A 3.846 3.846 0 0 1 85.212 30.861 A 4.701 4.701 0 0 1 85.175 30.825 A 3.848 3.848 0 0 1 84 28.051 A 4.604 4.604 0 0 1 84 28 L 83.05 28 A 3.846 3.846 0 0 1 81.911 30.788 A 4.701 4.701 0 0 1 81.875 30.825 A 3.848 3.848 0 0 1 79.101 32 A 4.604 4.604 0 0 1 79.05 32 A 3.846 3.846 0 0 1 76.262 30.861 A 4.701 4.701 0 0 1 76.225 30.825 A 3.848 3.848 0 0 1 75.05 28.051 A 4.604 4.604 0 0 1 75.05 28 L 65.1 28 A 3.846 3.846 0 0 1 63.961 30.788 A 4.701 4.701 0 0 1 63.925 30.825 A 3.848 3.848 0 0 1 61.151 32 A 4.604 4.604 0 0 1 61.1 32 A 3.846 3.846 0 0 1 58.312 30.861 A 4.701 4.701 0 0 1 58.275 30.825 A 3.848 3.848 0 0 1 57.1 28.051 A 4.604 4.604 0 0 1 57.1 28 L 56 28 A 3.846 3.846 0 0 1 54.861 30.788 A 4.701 4.701 0 0 1 54.825 30.825 A 3.848 3.848 0 0 1 52.051 32 A 4.604 4.604 0 0 1 52 32 A 3.846 3.846 0 0 1 49.212 30.861 A 4.701 4.701 0 0 1 49.175 30.825 A 3.848 3.848 0 0 1 48 28.051 A 4.604 4.604 0 0 1 48 28 L 46 28 L 44 26 L 42 26 L 42 24 L 44 24 L 44 20 L 44.85 20 L 44.85 24 L 48 24 L 48 12 L 44 12 L 44 10 L 46 8 L 64 8 L 64 4 L 62 4 L 62 2 L 64 0 L 76 0 L 78 2 L 78 4 L 76 4 L 76 8 L 94 8 L 96 10 L 96 12 L 92 12 L 92 24 L 94.9 24 L 94.95 20 L 96 20 L 96 24 L 98.95 24 Z M 374.95 24 L 374.95 26 L 372 26 L 370 28 L 368 28 A 3.846 3.846 0 0 1 366.861 30.788 A 4.701 4.701 0 0 1 366.825 30.825 A 3.848 3.848 0 0 1 364.051 32 A 4.604 4.604 0 0 1 364 32 A 3.846 3.846 0 0 1 361.212 30.861 A 4.701 4.701 0 0 1 361.175 30.825 A 3.848 3.848 0 0 1 360 28.051 A 4.604 4.604 0 0 1 360 28 L 359.05 28 A 3.846 3.846 0 0 1 357.911 30.788 A 4.701 4.701 0 0 1 357.875 30.825 A 3.848 3.848 0 0 1 355.101 32 A 4.604 4.604 0 0 1 355.05 32 A 3.846 3.846 0 0 1 352.262 30.861 A 4.701 4.701 0 0 1 352.225 30.825 A 3.848 3.848 0 0 1 351.05 28.051 A 4.604 4.604 0 0 1 351.05 28 L 341.1 28 A 3.846 3.846 0 0 1 339.961 30.788 A 4.701 4.701 0 0 1 339.925 30.825 A 3.848 3.848 0 0 1 337.151 32 A 4.604 4.604 0 0 1 337.1 32 A 3.846 3.846 0 0 1 334.312 30.861 A 4.701 4.701 0 0 1 334.275 30.825 A 3.848 3.848 0 0 1 333.1 28.051 A 4.604 4.604 0 0 1 333.1 28 L 332 28 A 3.846 3.846 0 0 1 330.861 30.788 A 4.701 4.701 0 0 1 330.825 30.825 A 3.848 3.848 0 0 1 328.051 32 A 4.604 4.604 0 0 1 328 32 A 3.846 3.846 0 0 1 325.212 30.861 A 4.701 4.701 0 0 1 325.175 30.825 A 3.848 3.848 0 0 1 324 28.051 A 4.604 4.604 0 0 1 324 28 L 322 28 L 320 26 L 318 26 L 318 24 L 320 24 L 320 20 L 320.85 20 L 320.85 24 L 324 24 L 324 12 L 320 12 L 320 10 L 322 8 L 370 8 L 372 10 L 372 12 L 368 12 L 368 24 L 370.9 24 L 370.95 20 L 372 20 L 372 24 L 374.95 24 Z M 430.95 24 L 430.95 26 L 428 26 L 426 28 L 424 28 A 3.846 3.846 0 0 1 422.861 30.788 A 4.701 4.701 0 0 1 422.825 30.825 A 3.848 3.848 0 0 1 420.051 32 A 4.604 4.604 0 0 1 420 32 A 3.846 3.846 0 0 1 417.212 30.861 A 4.701 4.701 0 0 1 417.175 30.825 A 3.848 3.848 0 0 1 416 28.051 A 4.604 4.604 0 0 1 416 28 L 415.05 28 A 3.846 3.846 0 0 1 413.911 30.788 A 4.701 4.701 0 0 1 413.875 30.825 A 3.848 3.848 0 0 1 411.101 32 A 4.604 4.604 0 0 1 411.05 32 A 3.846 3.846 0 0 1 408.262 30.861 A 4.701 4.701 0 0 1 408.225 30.825 A 3.848 3.848 0 0 1 407.05 28.051 A 4.604 4.604 0 0 1 407.05 28 L 397.1 28 A 3.846 3.846 0 0 1 395.961 30.788 A 4.701 4.701 0 0 1 395.925 30.825 A 3.848 3.848 0 0 1 393.151 32 A 4.604 4.604 0 0 1 393.1 32 A 3.846 3.846 0 0 1 390.312 30.861 A 4.701 4.701 0 0 1 390.275 30.825 A 3.848 3.848 0 0 1 389.1 28.051 A 4.604 4.604 0 0 1 389.1 28 L 388 28 A 3.846 3.846 0 0 1 386.861 30.788 A 4.701 4.701 0 0 1 386.825 30.825 A 3.848 3.848 0 0 1 384.051 32 A 4.604 4.604 0 0 1 384 32 A 3.846 3.846 0 0 1 381.212 30.861 A 4.701 4.701 0 0 1 381.175 30.825 A 3.848 3.848 0 0 1 380 28.051 A 4.604 4.604 0 0 1 380 28 L 378 28 L 376 26 L 374 26 L 374 24 L 376 24 L 376 20 L 376.85 20 L 376.85 24 L 380 24 L 380 12 L 376 12 L 376 10 L 378 8 L 426 8 L 428 10 L 428 12 L 424 12 L 424 24 L 426.9 24 L 426.95 20 L 428 20 L 428 24 L 430.95 24 Z M 486.95 24 L 486.95 26 L 484 26 L 482 28 L 480 28 A 3.846 3.846 0 0 1 478.861 30.788 A 4.701 4.701 0 0 1 478.825 30.825 A 3.848 3.848 0 0 1 476.051 32 A 4.604 4.604 0 0 1 476 32 A 3.846 3.846 0 0 1 473.212 30.861 A 4.701 4.701 0 0 1 473.175 30.825 A 3.848 3.848 0 0 1 472 28.051 A 4.604 4.604 0 0 1 472 28 L 471.05 28 A 3.846 3.846 0 0 1 469.911 30.788 A 4.701 4.701 0 0 1 469.875 30.825 A 3.848 3.848 0 0 1 467.101 32 A 4.604 4.604 0 0 1 467.05 32 A 3.846 3.846 0 0 1 464.262 30.861 A 4.701 4.701 0 0 1 464.225 30.825 A 3.848 3.848 0 0 1 463.05 28.051 A 4.604 4.604 0 0 1 463.05 28 L 453.1 28 A 3.846 3.846 0 0 1 451.961 30.788 A 4.701 4.701 0 0 1 451.925 30.825 A 3.848 3.848 0 0 1 449.151 32 A 4.604 4.604 0 0 1 449.1 32 A 3.846 3.846 0 0 1 446.312 30.861 A 4.701 4.701 0 0 1 446.275 30.825 A 3.848 3.848 0 0 1 445.1 28.051 A 4.604 4.604 0 0 1 445.1 28 L 444 28 A 3.846 3.846 0 0 1 442.861 30.788 A 4.701 4.701 0 0 1 442.825 30.825 A 3.848 3.848 0 0 1 440.051 32 A 4.604 4.604 0 0 1 440 32 A 3.846 3.846 0 0 1 437.212 30.861 A 4.701 4.701 0 0 1 437.175 30.825 A 3.848 3.848 0 0 1 436 28.051 A 4.604 4.604 0 0 1 436 28 L 434 28 L 432 26 L 430 26 L 430 24 L 432 24 L 432 20 L 432.85 20 L 432.85 24 L 436 24 L 436 12 L 432 12 L 432 10 L 434 8 L 482 8 L 484 10 L 484 12 L 480 12 L 480 24 L 482.9 24 L 482.95 20 L 484 20 L 484 24 L 486.95 24 Z M 196.95 24 L 196.95 26 L 194 26 L 192 28 L 190 28 A 3.846 3.846 0 0 1 188.861 30.788 A 4.701 4.701 0 0 1 188.825 30.825 A 3.848 3.848 0 0 1 186.051 32 A 4.604 4.604 0 0 1 186 32 A 3.846 3.846 0 0 1 183.212 30.861 A 4.701 4.701 0 0 1 183.175 30.825 A 3.848 3.848 0 0 1 182 28.051 A 4.604 4.604 0 0 1 182 28 L 168 28 A 3.846 3.846 0 0 1 166.861 30.788 A 4.701 4.701 0 0 1 166.825 30.825 A 3.848 3.848 0 0 1 164.051 32 A 4.604 4.604 0 0 1 164 32 A 3.846 3.846 0 0 1 161.212 30.861 A 4.701 4.701 0 0 1 161.175 30.825 A 3.848 3.848 0 0 1 160 28.051 A 4.604 4.604 0 0 1 160 28 L 158 28 L 156 26 L 154 26 L 154 24 L 158 24 L 158 16 L 174 16 L 174 24 L 176 24 L 176 12 L 192 12 L 192 24 L 196.95 24 Z M 318.75 24 L 318.75 26 L 316 26 L 314 28 L 312 28 A 3.846 3.846 0 0 1 310.861 30.788 A 4.701 4.701 0 0 1 310.825 30.825 A 3.848 3.848 0 0 1 308.051 32 A 4.604 4.604 0 0 1 308 32 A 3.846 3.846 0 0 1 305.212 30.861 A 4.701 4.701 0 0 1 305.175 30.825 A 3.848 3.848 0 0 1 304 28.051 A 4.604 4.604 0 0 1 304 28 L 294 28 A 3.846 3.846 0 0 1 292.861 30.788 A 4.701 4.701 0 0 1 292.825 30.825 A 3.848 3.848 0 0 1 290.051 32 A 4.604 4.604 0 0 1 290 32 A 3.846 3.846 0 0 1 287.212 30.861 A 4.701 4.701 0 0 1 287.175 30.825 A 3.848 3.848 0 0 1 286 28.051 A 4.604 4.604 0 0 1 286 28 L 284 28 L 282 26 L 279.5 26 L 279.5 24 L 282 24 L 282 10 L 284 8 L 308 8 A 23.649 23.649 0 0 0 308.005 8.497 Q 308.016 9.006 308.05 9.35 Q 308.45 12.45 310 14 A 5.265 5.265 0 0 0 311.333 14.95 Q 311.965 15.274 312.751 15.506 A 11.592 11.592 0 0 0 313.75 15.75 Q 314.55 15.9 316 16 L 316 24 L 318.75 24 Z M 239 24 L 239 26 L 236 26 L 234 28 L 232 28 A 3.846 3.846 0 0 1 230.861 30.788 A 4.701 4.701 0 0 1 230.825 30.825 A 3.848 3.848 0 0 1 228.051 32 A 4.604 4.604 0 0 1 228 32 A 3.846 3.846 0 0 1 225.212 30.861 A 4.701 4.701 0 0 1 225.175 30.825 A 3.848 3.848 0 0 1 224 28.051 A 4.604 4.604 0 0 1 224 28 L 210 28 A 3.846 3.846 0 0 1 208.861 30.788 A 4.701 4.701 0 0 1 208.825 30.825 A 3.848 3.848 0 0 1 206.051 32 A 4.604 4.604 0 0 1 206 32 A 3.846 3.846 0 0 1 203.212 30.861 A 4.701 4.701 0 0 1 203.175 30.825 A 3.848 3.848 0 0 1 202 28.051 A 4.604 4.604 0 0 1 202 28 L 200 28 L 198 26 L 195.55 26 L 195.55 24 L 220 24 L 220 18 L 234 18 L 234 24 L 239 24 Z M 280.95 24 L 280.95 26 L 278 26 L 276 28 L 274 28 A 3.846 3.846 0 0 1 272.861 30.788 A 4.701 4.701 0 0 1 272.825 30.825 A 3.848 3.848 0 0 1 270.051 32 A 4.604 4.604 0 0 1 270 32 A 3.846 3.846 0 0 1 267.212 30.861 A 4.701 4.701 0 0 1 267.175 30.825 A 3.848 3.848 0 0 1 266 28.051 A 4.604 4.604 0 0 1 266 28 L 252 28 A 3.846 3.846 0 0 1 250.861 30.788 A 4.701 4.701 0 0 1 250.825 30.825 A 3.848 3.848 0 0 1 248.051 32 A 4.604 4.604 0 0 1 248 32 A 3.846 3.846 0 0 1 245.212 30.861 A 4.701 4.701 0 0 1 245.175 30.825 A 3.848 3.848 0 0 1 244 28.051 A 4.604 4.604 0 0 1 244 28 L 242 28 L 240 26 L 238 26 L 238 24 L 242 24 L 242 18 L 256 18 L 256 24 L 280.95 24 Z M 42.95 24 L 42.95 26 L 40 26 L 38 28 L 36 28 A 3.846 3.846 0 0 1 34.861 30.788 A 4.701 4.701 0 0 1 34.825 30.825 A 3.848 3.848 0 0 1 32.051 32 A 4.604 4.604 0 0 1 32 32 A 3.846 3.846 0 0 1 29.212 30.861 A 4.701 4.701 0 0 1 29.175 30.825 A 3.848 3.848 0 0 1 28 28.051 A 4.604 4.604 0 0 1 28 28 L 14 28 A 3.846 3.846 0 0 1 12.861 30.788 A 4.701 4.701 0 0 1 12.825 30.825 A 3.848 3.848 0 0 1 10.051 32 A 4.604 4.604 0 0 1 10 32 A 3.846 3.846 0 0 1 7.212 30.861 A 4.701 4.701 0 0 1 7.175 30.825 A 3.848 3.848 0 0 1 6 28.051 A 4.604 4.604 0 0 1 6 28 L 4 28 L 2 26 L 0 26 L 0 24 L 42.95 24 Z M 146 20 L 146 8 L 140 8 L 140 14 L 142 14 L 142 20 L 146 20 Z M 364 20 L 364 12 L 360 12 L 360 20 L 364 20 Z M 356 20 L 356 12 L 352 12 L 352 20 L 356 20 Z M 348 20 L 348 12 L 344 12 L 344 20 L 348 20 Z M 340 20 L 340 12 L 336 12 L 336 20 L 340 20 Z M 332 20 L 332 12 L 328 12 L 328 20 L 332 20 Z M 404 20 L 404 12 L 400 12 L 400 20 L 404 20 Z M 396 20 L 396 12 L 392 12 L 392 20 L 396 20 Z M 388 20 L 388 12 L 384 12 L 384 20 L 388 20 Z M 476 20 L 476 12 L 472 12 L 472 20 L 476 20 Z M 468 20 L 468 12 L 464 12 L 464 20 L 468 20 Z M 460 20 L 460 12 L 456 12 L 456 20 L 460 20 Z M 72 4 L 68 4 L 68 8 L 72 8 L 72 4 Z M 136 14 A 2.069 2.069 0 0 0 136.781 13.856 A 1.923 1.923 0 0 0 137.425 13.425 A 1.931 1.931 0 0 0 138 12.026 A 2.494 2.494 0 0 0 138 12 Q 138 11.15 137.425 10.575 A 1.931 1.931 0 0 0 136.026 10 A 2.494 2.494 0 0 0 136 10 A 2.069 2.069 0 0 0 135.219 10.144 A 1.923 1.923 0 0 0 134.575 10.575 A 1.931 1.931 0 0 0 134 11.974 A 2.494 2.494 0 0 0 134 12 Q 134 12.85 134.575 13.425 A 1.931 1.931 0 0 0 135.974 14 A 2.494 2.494 0 0 0 136 14 Z" vector-effect="non-scaling-stroke"/></g></svg>